<svg width="1542" height="358" viewBox="0 0 1542 358" fill="none" xmlns="http://www.w3.org/2000/svg">
<path d="M212.776 285.072H70.8488V36.8546C70.8488 17.4081 55.0681 1.62744 35.6052 1.62744H0V320.677C0 340.14 15.7478 355.904 35.2107 355.904H247.971V320.299C247.971 300.836 232.223 285.072 212.76 285.072H212.776Z" fill="white"/>
<path d="M318.852 36.8546V355.921H354.458C373.92 355.921 389.685 340.14 389.685 320.693V1.62744H354.079C334.617 1.62744 318.852 17.4081 318.852 36.8546Z" fill="white"/>
<path d="M1116.96 36.8546V143.341H975.247V36.3943C975.247 17.178 959.68 1.62744 940.497 1.62744H904.398V355.921H940.497C959.68 355.921 975.247 340.354 975.247 321.17V214.19H1116.96V321.17C1116.96 340.354 1132.53 355.921 1151.71 355.921H1187.81V1.62744H1152.2C1132.74 1.62744 1116.98 17.4081 1116.98 36.8546H1116.96Z" fill="white"/>
<path d="M1293.92 1.62744C1274.46 1.62744 1258.69 17.4081 1258.69 36.8546V72.4926H1364.96V355.921H1400.6C1420.07 355.921 1435.81 340.14 1435.81 320.693V72.4926H1506.68C1526.14 72.4926 1541.91 56.7119 1541.91 37.2655V1.62744H1293.92Z" fill="white"/>
<path d="M647.025 0C599.272 0 554.379 18.5916 520.615 52.3558C486.851 86.1199 468.259 131.013 468.259 178.766C468.259 226.519 486.851 271.412 520.615 305.176C554.379 338.94 599.272 357.531 647.025 357.531C658.335 357.531 669.48 356.479 680.362 354.441V319.822V164.53H644.757C625.294 164.53 609.53 180.311 609.53 199.757V278.02C569.47 262.831 540.933 224.07 540.933 178.749C540.933 120.229 588.538 72.6241 647.058 72.6241C705.578 72.6241 753.183 120.229 753.183 178.749C753.183 210.87 738.833 239.702 716.23 259.165V343.69C737.37 334.83 756.783 321.844 773.484 305.159C807.249 271.395 825.84 226.502 825.84 178.749C825.84 130.996 807.249 86.1034 773.484 52.3393C739.671 18.5916 694.778 0 647.025 0Z" fill="white"/>
</svg>
